<svg xmlns="http://www.w3.org/2000/svg" width="1200" height="850" viewBox="0 0 1200 850">
<rect width="1200" height="850" fill="white"/>
<text x="60" y="46" font-family="Helvetica,Arial,sans-serif" font-size="25" font-weight="700" fill="#0e1f35">MH370 flaperon drift diagnostic - CMEMS GLORYS12V1 daily 1/12-degree currents</text>
<rect x="115.00" y="734.84" width="16.04" height="10.26" fill="rgb(239,156,102)" stroke="none" stroke-width="0.4"/>
<rect x="115.00" y="724.69" width="16.04" height="10.26" fill="rgb(237,247,255)" stroke="none" stroke-width="0.4"/>
<rect x="146.88" y="714.53" width="16.04" height="10.26" fill="rgb(239,172,129)" stroke="none" stroke-width="0.4"/>
<rect x="194.69" y="704.38" width="16.04" height="10.26" fill="rgb(237,247,255)" stroke="none" stroke-width="0.4"/>
<rect x="226.56" y="684.06" width="16.04" height="10.26" fill="rgb(239,158,105)" stroke="none" stroke-width="0.4"/>
<rect x="258.44" y="673.91" width="16.04" height="10.26" fill="rgb(238,186,153)" stroke="none" stroke-width="0.4"/>
<rect x="290.31" y="663.75" width="16.04" height="10.26" fill="rgb(239,159,108)" stroke="none" stroke-width="0.4"/>
<rect x="322.19" y="653.59" width="16.04" height="10.26" fill="rgb(239,144,82)" stroke="none" stroke-width="0.4"/>
<rect x="354.06" y="643.44" width="16.04" height="10.26" fill="rgb(239,139,74)" stroke="#145994" stroke-width="0.4"/>
<rect x="385.94" y="633.28" width="16.04" height="10.26" fill="rgb(239,154,99)" stroke="none" stroke-width="0.4"/>
<rect x="417.81" y="623.12" width="16.04" height="10.26" fill="rgb(239,156,103)" stroke="none" stroke-width="0.4"/>
<rect x="449.69" y="602.81" width="16.04" height="10.26" fill="rgb(239,133,64)" stroke="#145994" stroke-width="0.4"/>
<rect x="481.56" y="592.66" width="16.04" height="10.26" fill="rgb(239,139,74)" stroke="#145994" stroke-width="0.4"/>
<rect x="497.50" y="582.50" width="16.04" height="10.26" fill="rgb(239,158,105)" stroke="none" stroke-width="0.4"/>
<rect x="529.38" y="572.34" width="16.04" height="10.26" fill="rgb(239,161,111)" stroke="none" stroke-width="0.4"/>
<rect x="561.25" y="562.19" width="16.04" height="10.26" fill="rgb(239,140,76)" stroke="#145994" stroke-width="0.4"/>
<rect x="577.19" y="541.88" width="16.04" height="10.26" fill="rgb(239,138,72)" stroke="#145994" stroke-width="0.4"/>
<rect x="609.06" y="531.72" width="16.04" height="10.26" fill="rgb(239,133,64)" stroke="#145994" stroke-width="0.4"/>
<rect x="640.94" y="521.56" width="16.04" height="10.26" fill="rgb(239,135,67)" stroke="#145994" stroke-width="0.4"/>
<rect x="656.88" y="501.25" width="16.04" height="10.26" fill="rgb(239,136,69)" stroke="#145994" stroke-width="0.4"/>
<rect x="688.75" y="491.09" width="16.04" height="10.26" fill="rgb(239,139,74)" stroke="#145994" stroke-width="0.4"/>
<rect x="704.69" y="480.94" width="16.04" height="10.26" fill="rgb(239,138,72)" stroke="#145994" stroke-width="0.4"/>
<rect x="720.62" y="470.78" width="16.04" height="10.26" fill="rgb(239,145,84)" stroke="none" stroke-width="0.4"/>
<rect x="752.50" y="450.47" width="16.04" height="10.26" fill="rgb(239,141,77)" stroke="#145994" stroke-width="0.4"/>
<rect x="768.44" y="440.31" width="16.04" height="10.26" fill="rgb(239,148,88)" stroke="none" stroke-width="0.4"/>
<rect x="784.38" y="420.00" width="16.04" height="10.26" fill="rgb(239,142,78)" stroke="none" stroke-width="0.4"/>
<rect x="816.25" y="409.84" width="16.04" height="10.26" fill="rgb(239,145,83)" stroke="none" stroke-width="0.4"/>
<rect x="832.19" y="399.69" width="16.04" height="10.26" fill="rgb(239,147,87)" stroke="none" stroke-width="0.4"/>
<rect x="848.12" y="379.38" width="16.04" height="10.26" fill="rgb(239,146,85)" stroke="none" stroke-width="0.4"/>
<rect x="864.06" y="369.22" width="16.04" height="10.26" fill="rgb(239,147,86)" stroke="none" stroke-width="0.4"/>
<rect x="880.00" y="359.06" width="16.04" height="10.26" fill="rgb(239,142,79)" stroke="none" stroke-width="0.4"/>
<rect x="895.94" y="338.75" width="16.04" height="10.26" fill="rgb(239,150,92)" stroke="none" stroke-width="0.4"/>
<rect x="911.88" y="328.59" width="16.04" height="10.26" fill="rgb(239,147,87)" stroke="none" stroke-width="0.4"/>
<rect x="927.81" y="308.28" width="16.04" height="10.26" fill="rgb(239,143,80)" stroke="none" stroke-width="0.4"/>
<rect x="943.75" y="298.12" width="16.04" height="10.26" fill="rgb(239,133,63)" stroke="#145994" stroke-width="0.4"/>
<rect x="959.69" y="277.81" width="16.04" height="10.26" fill="rgb(239,139,74)" stroke="#145994" stroke-width="0.4"/>
<rect x="975.62" y="267.66" width="16.04" height="10.26" fill="rgb(240,125,50)" stroke="#0e1f35" stroke-width="0.9"/>
<rect x="991.56" y="257.50" width="16.04" height="10.26" fill="rgb(240,126,51)" stroke="#0e1f35" stroke-width="0.9"/>
<rect x="991.56" y="237.19" width="16.04" height="10.26" fill="rgb(240,128,56)" stroke="#0e1f35" stroke-width="0.9"/>
<rect x="1007.50" y="227.03" width="16.04" height="10.26" fill="rgb(240,122,46)" stroke="#0e1f35" stroke-width="0.9"/>
<rect x="1023.44" y="206.72" width="16.04" height="10.26" fill="rgb(240,127,54)" stroke="#0e1f35" stroke-width="0.9"/>
<rect x="1039.38" y="196.56" width="16.04" height="10.26" fill="rgb(240,131,60)" stroke="#145994" stroke-width="0.4"/>
<rect x="1039.38" y="176.25" width="16.04" height="10.26" fill="rgb(239,137,70)" stroke="#145994" stroke-width="0.4"/>
<rect x="1055.31" y="166.09" width="16.04" height="10.26" fill="rgb(240,130,58)" stroke="#145994" stroke-width="0.4"/>
<rect x="1055.31" y="145.78" width="16.04" height="10.26" fill="rgb(240,129,58)" stroke="#145994" stroke-width="0.4"/>
<rect x="1071.25" y="135.62" width="16.04" height="10.26" fill="rgb(240,123,46)" stroke="#0e1f35" stroke-width="0.9"/>
<rect x="1087.19" y="115.31" width="16.04" height="10.26" fill="rgb(240,126,53)" stroke="#0e1f35" stroke-width="0.9"/>
<line x1="115.00" y1="95" x2="115.00" y2="745" stroke="#cfd6dd" stroke-width="1"/>
<line x1="115" y1="95.00" x2="1135" y2="95.00" stroke="#cfd6dd" stroke-width="1"/>
<text x="115.00" y="780" font-family="Helvetica,Arial,sans-serif" font-size="15" text-anchor="middle" fill="#59636f">93.0 E</text>
<text x="100" y="100.00" font-family="Helvetica,Arial,sans-serif" font-size="15" text-anchor="end" fill="#59636f">-8.8</text>
<line x1="370.00" y1="95" x2="370.00" y2="745" stroke="#cfd6dd" stroke-width="1"/>
<line x1="115" y1="257.50" x2="1135" y2="257.50" stroke="#cfd6dd" stroke-width="1"/>
<text x="370.00" y="780" font-family="Helvetica,Arial,sans-serif" font-size="15" text-anchor="middle" fill="#59636f">96.8 E</text>
<text x="100" y="262.50" font-family="Helvetica,Arial,sans-serif" font-size="15" text-anchor="end" fill="#59636f">-15.5</text>
<line x1="625.00" y1="95" x2="625.00" y2="745" stroke="#cfd6dd" stroke-width="1"/>
<line x1="115" y1="420.00" x2="1135" y2="420.00" stroke="#cfd6dd" stroke-width="1"/>
<text x="625.00" y="780" font-family="Helvetica,Arial,sans-serif" font-size="15" text-anchor="middle" fill="#59636f">100.7 E</text>
<text x="100" y="425.00" font-family="Helvetica,Arial,sans-serif" font-size="15" text-anchor="end" fill="#59636f">-22.3</text>
<line x1="880.00" y1="95" x2="880.00" y2="745" stroke="#cfd6dd" stroke-width="1"/>
<line x1="115" y1="582.50" x2="1135" y2="582.50" stroke="#cfd6dd" stroke-width="1"/>
<text x="880.00" y="780" font-family="Helvetica,Arial,sans-serif" font-size="15" text-anchor="middle" fill="#59636f">104.6 E</text>
<text x="100" y="587.50" font-family="Helvetica,Arial,sans-serif" font-size="15" text-anchor="end" fill="#59636f">-29.0</text>
<line x1="1135.00" y1="95" x2="1135.00" y2="745" stroke="#cfd6dd" stroke-width="1"/>
<line x1="115" y1="745.00" x2="1135" y2="745.00" stroke="#cfd6dd" stroke-width="1"/>
<text x="1135.00" y="780" font-family="Helvetica,Arial,sans-serif" font-size="15" text-anchor="middle" fill="#59636f">108.4 E</text>
<text x="100" y="750.00" font-family="Helvetica,Arial,sans-serif" font-size="15" text-anchor="end" fill="#59636f">-35.7</text>
<rect x="115" y="95" width="1020" height="650" fill="none" stroke="#0e1f35" stroke-width="2"/>
</svg>
