<svg xmlns="http://www.w3.org/2000/svg" width="1200" height="850" viewBox="0 0 1200 850">
<rect width="1200" height="850" fill="white"/>
<text x="60" y="46" font-family="Helvetica,Arial,sans-serif" font-size="25" font-weight="700" fill="#0e1f35">MH370 primary impact - OSCAR Pl?iades conditional sensitivity - conditional sensitivity</text>
<g id="hpd-density-bands" aria-label="Display-smoothed highest-posterior-density bands">
<rect x="864.06" y="183.75" width="16.04" height="9.94" fill="rgb(252,252,253)"/>
<rect x="880.00" y="183.75" width="16.04" height="9.94" fill="rgb(235,235,243)"/>
<rect x="895.94" y="183.75" width="16.04" height="9.94" fill="rgb(235,235,243)"/>
<rect x="911.88" y="183.75" width="16.04" height="9.94" fill="rgb(245,246,249)"/>
<rect x="927.81" y="183.75" width="16.04" height="9.94" fill="rgb(252,252,253)"/>
<rect x="864.06" y="173.91" width="16.04" height="9.94" fill="rgb(235,235,243)"/>
<rect x="880.00" y="173.91" width="16.04" height="9.94" fill="rgb(235,235,243)"/>
<rect x="895.94" y="173.91" width="16.04" height="9.94" fill="rgb(217,215,231)"/>
<rect x="911.88" y="173.91" width="16.04" height="9.94" fill="rgb(235,235,243)"/>
<rect x="927.81" y="173.91" width="16.04" height="9.94" fill="rgb(235,235,243)"/>
<rect x="864.06" y="164.06" width="16.04" height="9.94" fill="rgb(235,235,243)"/>
<rect x="880.00" y="164.06" width="16.04" height="9.94" fill="rgb(217,215,231)"/>
<rect x="895.94" y="164.06" width="16.04" height="9.94" fill="rgb(217,215,231)"/>
<rect x="911.88" y="164.06" width="16.04" height="9.94" fill="rgb(217,215,231)"/>
<rect x="927.81" y="164.06" width="16.04" height="9.94" fill="rgb(235,235,243)"/>
<rect x="864.06" y="154.22" width="16.04" height="9.94" fill="rgb(245,246,249)"/>
<rect x="880.00" y="154.22" width="16.04" height="9.94" fill="rgb(235,235,243)"/>
<rect x="895.94" y="154.22" width="16.04" height="9.94" fill="rgb(217,215,231)"/>
<rect x="911.88" y="154.22" width="16.04" height="9.94" fill="rgb(235,235,243)"/>
<rect x="927.81" y="154.22" width="16.04" height="9.94" fill="rgb(245,246,249)"/>
<rect x="880.00" y="144.38" width="16.04" height="9.94" fill="rgb(245,246,249)"/>
<rect x="895.94" y="144.38" width="16.04" height="9.94" fill="rgb(235,235,243)"/>
<rect x="911.88" y="144.38" width="16.04" height="9.94" fill="rgb(245,246,249)"/>
</g>
<line x1="115.00" y1="105" x2="115.00" y2="735" stroke="#cfd6dd" stroke-width="1"/>
<line x1="115" y1="105.00" x2="1135" y2="105.00" stroke="#cfd6dd" stroke-width="1"/>
<text x="115.00" y="780" font-family="Helvetica,Arial,sans-serif" font-size="15" text-anchor="middle" fill="#59636f">86.3 E</text>
<text x="100" y="110.00" font-family="Helvetica,Arial,sans-serif" font-size="15" text-anchor="end" fill="#59636f">-37.1</text>
<line x1="370.00" y1="105" x2="370.00" y2="735" stroke="#cfd6dd" stroke-width="1"/>
<line x1="115" y1="262.50" x2="1135" y2="262.50" stroke="#cfd6dd" stroke-width="1"/>
<text x="370.00" y="780" font-family="Helvetica,Arial,sans-serif" font-size="15" text-anchor="middle" fill="#59636f">87.4 E</text>
<text x="100" y="267.50" font-family="Helvetica,Arial,sans-serif" font-size="15" text-anchor="end" fill="#59636f">-37.8</text>
<line x1="625.00" y1="105" x2="625.00" y2="735" stroke="#cfd6dd" stroke-width="1"/>
<line x1="115" y1="420.00" x2="1135" y2="420.00" stroke="#cfd6dd" stroke-width="1"/>
<text x="625.00" y="780" font-family="Helvetica,Arial,sans-serif" font-size="15" text-anchor="middle" fill="#59636f">88.5 E</text>
<text x="100" y="425.00" font-family="Helvetica,Arial,sans-serif" font-size="15" text-anchor="end" fill="#59636f">-38.5</text>
<line x1="880.00" y1="105" x2="880.00" y2="735" stroke="#cfd6dd" stroke-width="1"/>
<line x1="115" y1="577.50" x2="1135" y2="577.50" stroke="#cfd6dd" stroke-width="1"/>
<text x="880.00" y="780" font-family="Helvetica,Arial,sans-serif" font-size="15" text-anchor="middle" fill="#59636f">89.6 E</text>
<text x="100" y="582.50" font-family="Helvetica,Arial,sans-serif" font-size="15" text-anchor="end" fill="#59636f">-39.1</text>
<line x1="1135.00" y1="105" x2="1135.00" y2="735" stroke="#cfd6dd" stroke-width="1"/>
<line x1="115" y1="735.00" x2="1135" y2="735.00" stroke="#cfd6dd" stroke-width="1"/>
<text x="1135.00" y="780" font-family="Helvetica,Arial,sans-serif" font-size="15" text-anchor="middle" fill="#59636f">90.8 E</text>
<text x="100" y="740.00" font-family="Helvetica,Arial,sans-serif" font-size="15" text-anchor="end" fill="#59636f">-39.8</text>
<g id="hpd-99-contour" aria-label="99% HPD" fill="none" stroke="#5c5c5c" stroke-width="1.3"><title>99% HPD</title>
<line x1="875.95" y1="185.00" x2="875.95" y2="185.00"/>
<line x1="892.14" y1="192.49" x2="875.95" y2="185.00"/>
<line x1="908.33" y1="193.42" x2="892.14" y2="192.49"/>
<line x1="924.52" y1="192.49" x2="908.33" y2="193.42"/>
<line x1="940.71" y1="185.00" x2="924.52" y2="192.49"/>
<line x1="940.71" y1="185.00" x2="940.71" y2="185.00"/>
<line x1="875.95" y1="185.00" x2="863.82" y2="175.00"/>
<line x1="940.71" y1="185.00" x2="952.85" y2="175.00"/>
<line x1="863.82" y1="175.00" x2="862.32" y2="165.00"/>
<line x1="952.85" y1="175.00" x2="954.34" y2="165.00"/>
<line x1="862.32" y1="165.00" x2="863.82" y2="155.00"/>
<line x1="954.34" y1="165.00" x2="952.85" y2="155.00"/>
<line x1="863.82" y1="155.00" x2="875.95" y2="145.00"/>
<line x1="875.95" y1="145.00" x2="875.95" y2="145.00"/>
<line x1="940.71" y1="145.00" x2="940.71" y2="145.00"/>
<line x1="952.85" y1="155.00" x2="940.71" y2="145.00"/>
<line x1="875.95" y1="145.00" x2="892.14" y2="137.51"/>
<line x1="908.33" y1="136.58" x2="892.14" y2="137.51"/>
<line x1="924.52" y1="137.51" x2="908.33" y2="136.58"/>
<line x1="940.71" y1="145.00" x2="924.52" y2="137.51"/>
</g>
<g id="hpd-95-contour" aria-label="95% HPD" fill="none" stroke="#898ba0" stroke-width="1.6"><title>95% HPD</title>
<line x1="892.14" y1="185.00" x2="892.14" y2="185.00"/>
<line x1="908.33" y1="188.69" x2="892.14" y2="185.00"/>
<line x1="924.52" y1="185.00" x2="908.33" y2="188.69"/>
<line x1="924.52" y1="185.00" x2="924.52" y2="185.00"/>
<line x1="875.95" y1="175.00" x2="875.95" y2="175.00"/>
<line x1="892.14" y1="185.00" x2="875.95" y2="175.00"/>
<line x1="924.52" y1="185.00" x2="940.71" y2="175.00"/>
<line x1="940.71" y1="175.00" x2="940.71" y2="175.00"/>
<line x1="875.95" y1="175.00" x2="869.98" y2="165.00"/>
<line x1="940.71" y1="175.00" x2="946.68" y2="165.00"/>
<line x1="869.98" y1="165.00" x2="875.95" y2="155.00"/>
<line x1="946.68" y1="165.00" x2="940.71" y2="155.00"/>
<line x1="875.95" y1="155.00" x2="875.95" y2="155.00"/>
<line x1="892.14" y1="145.00" x2="875.95" y2="155.00"/>
<line x1="940.71" y1="155.00" x2="924.52" y2="145.00"/>
<line x1="940.71" y1="155.00" x2="940.71" y2="155.00"/>
<line x1="892.14" y1="145.00" x2="892.14" y2="145.00"/>
<line x1="908.33" y1="141.31" x2="892.14" y2="145.00"/>
<line x1="924.52" y1="145.00" x2="908.33" y2="141.31"/>
<line x1="924.52" y1="145.00" x2="924.52" y2="145.00"/>
</g>
<g id="hpd-90-contour" aria-label="90% HPD" fill="none" stroke="#6b658f" stroke-width="2"><title>90% HPD</title>
<line x1="892.14" y1="185.00" x2="892.14" y2="185.00"/>
<line x1="908.33" y1="188.69" x2="892.14" y2="185.00"/>
<line x1="924.52" y1="185.00" x2="908.33" y2="188.69"/>
<line x1="875.95" y1="175.00" x2="875.95" y2="175.00"/>
<line x1="892.14" y1="185.00" x2="875.95" y2="175.00"/>
<line x1="924.52" y1="185.00" x2="924.52" y2="185.00"/>
<line x1="940.71" y1="175.00" x2="924.52" y2="185.00"/>
<line x1="940.71" y1="175.00" x2="940.71" y2="175.00"/>
<line x1="875.95" y1="175.00" x2="869.98" y2="165.00"/>
<line x1="940.71" y1="175.00" x2="946.68" y2="165.00"/>
<line x1="869.98" y1="165.00" x2="875.95" y2="155.00"/>
<line x1="875.95" y1="155.00" x2="875.95" y2="155.00"/>
<line x1="940.71" y1="155.00" x2="940.71" y2="155.00"/>
<line x1="946.68" y1="165.00" x2="940.71" y2="155.00"/>
<line x1="875.95" y1="155.00" x2="892.14" y2="145.00"/>
<line x1="892.14" y1="145.00" x2="892.14" y2="145.00"/>
<line x1="924.52" y1="145.00" x2="924.52" y2="145.00"/>
<line x1="940.71" y1="155.00" x2="924.52" y2="145.00"/>
<line x1="892.14" y1="145.00" x2="908.33" y2="141.31"/>
<line x1="924.52" y1="145.00" x2="908.33" y2="141.31"/>
</g>
<g id="hpd-50-contour" aria-label="50% HPD" fill="none" stroke="#514174" stroke-width="2.6"><title>50% HPD</title>
<line x1="908.33" y1="175.00" x2="908.33" y2="175.00"/>
<line x1="908.33" y1="175.00" x2="908.33" y2="175.00"/>
<line x1="892.14" y1="165.00" x2="892.14" y2="165.00"/>
<line x1="908.33" y1="175.00" x2="892.14" y2="165.00"/>
<line x1="908.33" y1="175.00" x2="924.52" y2="165.00"/>
<line x1="924.52" y1="165.00" x2="924.52" y2="165.00"/>
<line x1="892.14" y1="165.00" x2="892.14" y2="165.00"/>
<line x1="908.33" y1="155.00" x2="892.14" y2="165.00"/>
<line x1="924.52" y1="165.00" x2="908.33" y2="155.00"/>
<line x1="924.52" y1="165.00" x2="924.52" y2="165.00"/>
<line x1="908.33" y1="155.00" x2="908.33" y2="155.00"/>
<line x1="908.33" y1="155.00" x2="908.33" y2="155.00"/>
</g>
<rect x="115" y="105" width="1020" height="630" fill="none" stroke="#0e1f35" stroke-width="2"/>
<line x1="230.0" y1="78" x2="272.0" y2="78" stroke="#514174" stroke-width="2.6"/>
<text x="280.0" y="83" font-family="Helvetica,Arial,sans-serif" font-size="14" fill="#171717">50% HPD</text>
<line x1="465.0" y1="78" x2="507.0" y2="78" stroke="#6b658f" stroke-width="2"/>
<text x="515.0" y="83" font-family="Helvetica,Arial,sans-serif" font-size="14" fill="#171717">90% HPD</text>
<line x1="700.0" y1="78" x2="742.0" y2="78" stroke="#898ba0" stroke-width="1.6"/>
<text x="750.0" y="83" font-family="Helvetica,Arial,sans-serif" font-size="14" fill="#171717">95% HPD</text>
<line x1="935.0" y1="78" x2="977.0" y2="78" stroke="#5c5c5c" stroke-width="1.3"/>
<text x="985.0" y="83" font-family="Helvetica,Arial,sans-serif" font-size="14" fill="#171717">99% HPD</text>
<text x="600" y="827" font-family="Helvetica,Arial,sans-serif" font-size="12" text-anchor="middle" fill="#59636f">HPD contours use a fixed 5-cell display kernel; estimator weights and numerical summaries are unchanged.</text>
</svg>
